<?xml version="1.0" encoding="utf-8"?>
<!-- Generator: Adobe Illustrator 23.0.1, SVG Export Plug-In . SVG Version: 6.00 Build 0)  -->
<svg version="1.1" id="图层_1" xmlns="http://www.w3.org/2000/svg" xmlns:xlink="http://www.w3.org/1999/xlink" x="0px" y="0px"
	 viewBox="0 0 32 32" style="enable-background:new 0 0 32 32;" xml:space="preserve">
<style type="text/css">
	.st0{clip-path:url(#SVGID_2_);fill:#D81E06;}
</style>
<g>
	<g>
		<defs>
			<rect id="SVGID_1_" x="0" width="31.9" height="32"/>
		</defs>
		<clipPath id="SVGID_2_">
			<use xlink:href="#SVGID_1_"  style="overflow:visible;"/>
		</clipPath>
		<path class="st0" d="M16,0C7.2,0,0,7.2,0,16s7.2,16,16,16s16-7.2,16-16S24.8,0,16,0L16,0z M16,2.5c7.4,0,13.5,6.1,13.5,13.5
			c0,7.4-6.1,13.5-13.5,13.5C8.5,29.5,2.5,23.4,2.5,16C2.5,8.5,8.5,2.5,16,2.5L16,2.5z M15.8,5c-0.3,0-0.7,0.2-0.9,0.6c0,0,0,0,0,0
			c-0.3,0.6,0.3,3.1,1.2,4.7c-0.1,0.1-0.2,0.1-0.4,0.3c-1.1,0.5-2.9,3.1-2.9,3.1c-1.5,0.6-4,2.2-3.7,3.7c0,0.1,0.1,0.3,0.2,0.4
			c-0.2,0.1-0.3,0.3-0.4,0.4c-0.6,0.7-0.3,1.8,0.9,1.3c0.8-0.4,1.5-1,1.9-1.6c0,0-0.3-0.3-0.8-0.2c1.4-0.3,1.8-0.1,2.4-0.1
			c0.4,0.2,0.4-1.8,0.4-1.8c0-0.8-0.1-1.6-0.6-2.2c0.7,0.6,1.5,1.7,1.5,3.1c0,1-0.8,1.2-0.8,1.2c-0.5,0.9-2.2,3.4-1.6,5.5
			c0,0-0.5-0.8-0.5-1.1c-0.9,1-2.4,2.7-1.3,3.3c1.4,0.8,5.7-4.6,6.6-7.4c1.8-1.1,2.9-2.5,3.3-3.4c1.1,2.3,5.2,4.6,5.5,2.7
			c0.1-0.8-1-0.9-1.3-1.3c-0.7-1.3-1.7-1.6-3.1-1.3c0.6-0.4,1.2-0.3,1.2-0.3c0-0.3,0-0.7-0.5-1.3c0.2-0.6,0-1.2,0-1.2
			c0.8-0.5,1.4-1.3,1.5-2.2c0.2-1.6-1-3.1-2.6-3.3c-1.1-0.1-2.3,0.4-2.8,1.3c-1.2,2.1,0.1,3.7,1.2,4.2c-0.7-0.1-1.8-0.6-2.1-1.8
			c-0.3-1.2,0-2.2,0.3-2.9c0,0-0.7-0.6-0.9-0.7c0,0-0.7,0-1.3,0.3c0.6-0.8,1.3-0.7,1.3-0.7c0-0.3,0-0.8-0.2-1.1
			C16.5,5.1,16.2,4.9,15.8,5L15.8,5z M20.2,7.7c0.5,0.1,1,0.4,1.5,0.9c0.6,0.6,1.5,1.3,0.9,2.5c-0.7,1.2-2.3,1.7-3.4,1
			c-1-0.7-1.8-2.2-0.6-3.5C19.2,7.9,19.7,7.7,20.2,7.7L20.2,7.7z M21.4,9.6c-0.4,0.1-0.7,0.6-0.4,1c0.4,0.5,1.7,0.1,0.8-0.8
			C21.6,9.7,21.5,9.6,21.4,9.6L21.4,9.6z M17.4,12.8c0.2,0,0.3,0.1,0.4,0.2l0.5,0.6c0.2,0.2,0.2,0.6,0,0.8l-0.5,0.5
			c-0.1,0.1-0.3,0.2-0.4,0.2c-0.2,0-0.3-0.1-0.4-0.2l-0.5-0.5c-0.2-0.2-0.2-0.6,0-0.9L17,13C17.1,12.9,17.3,12.8,17.4,12.8
			L17.4,12.8z M17.4,12.8"/>
	</g>
</g>
</svg>
