<?xml version="1.0" encoding="utf-8"?>
<!-- Generator: Adobe Illustrator 23.0.1, SVG Export Plug-In . SVG Version: 6.00 Build 0)  -->
<svg version="1.1" id="图层_1" xmlns="http://www.w3.org/2000/svg" xmlns:xlink="http://www.w3.org/1999/xlink" x="0px" y="0px"
	 viewBox="0 0 16 16" style="enable-background:new 0 0 16 16;" xml:space="preserve">
<style type="text/css">
	.st0{clip-path:url(#SVGID_2_);fill:#D81E06;}
</style>
<g>
	<g>
		<defs>
			<rect id="SVGID_1_" width="16" height="16"/>
		</defs>
		<clipPath id="SVGID_2_">
			<use xlink:href="#SVGID_1_"  style="overflow:visible;"/>
		</clipPath>
		<path class="st0" d="M8,0C3.6,0,0,3.6,0,8s3.6,8,8,8s8-3.6,8-8S12.4,0,8,0L8,0z M8,1.2c3.7,0,6.8,3,6.8,6.8c0,3.7-3,6.8-6.8,6.8
			c-3.7,0-6.8-3-6.8-6.8C1.2,4.3,4.3,1.2,8,1.2L8,1.2z M7.9,2.5c-0.2,0-0.3,0.1-0.4,0.3c0,0,0,0,0,0C7.4,3.1,7.6,4.3,8.1,5.1
			C8,5.1,8,5.2,7.9,5.3C7.3,5.5,6.4,6.8,6.4,6.8C5.7,7.1,4.4,8,4.6,8.7c0,0.1,0,0.1,0.1,0.2C4.6,9,4.5,9,4.4,9.1
			C4.1,9.5,4.3,10,4.9,9.7C5.3,9.6,5.7,9.2,5.8,9c0,0-0.1-0.1-0.4-0.1c0.7-0.2,0.9-0.1,1.2,0c0.2,0.1,0.2-0.9,0.2-0.9
			c0-0.4-0.1-0.8-0.3-1.1c0.3,0.3,0.8,0.8,0.7,1.6C7.3,8.9,6.9,9,6.9,9c-0.2,0.4-1.1,1.7-0.8,2.8c0,0-0.3-0.4-0.3-0.6
			c-0.5,0.5-1.2,1.4-0.6,1.7c0.7,0.4,2.8-2.3,3.3-3.7c0.9-0.5,1.4-1.2,1.7-1.7c0.6,1.1,2.6,2.3,2.7,1.4c0.1-0.4-0.5-0.4-0.7-0.7
			c-0.4-0.6-0.8-0.8-1.5-0.6c0.3-0.2,0.6-0.2,0.6-0.2c0-0.2,0-0.3-0.2-0.6c0.1-0.3,0-0.6,0-0.6c0.4-0.2,0.7-0.6,0.8-1.1
			c0.1-0.8-0.5-1.5-1.3-1.6C9.9,3.4,9.4,3.6,9.1,4.1c-0.6,1,0,1.8,0.6,2.1c-0.4,0-0.9-0.3-1-0.9c-0.1-0.6,0-1.1,0.2-1.5
			c0,0-0.3-0.3-0.4-0.4c0,0-0.4,0-0.6,0.1C8,3.2,8.4,3.3,8.4,3.3c0-0.2,0-0.4-0.1-0.6C8.2,2.6,8.1,2.5,7.9,2.5L7.9,2.5z M10.1,3.9
			c0.3,0,0.5,0.2,0.8,0.4c0.3,0.3,0.8,0.6,0.4,1.3C11,6.2,10.1,6.4,9.6,6.1C9.1,5.7,8.7,4.9,9.3,4.3C9.6,4,9.9,3.8,10.1,3.9
			L10.1,3.9z M10.7,4.8c-0.2,0-0.4,0.3-0.2,0.5c0.2,0.2,0.8,0.1,0.4-0.4C10.8,4.8,10.7,4.8,10.7,4.8L10.7,4.8z M8.7,6.4
			c0.1,0,0.2,0,0.2,0.1l0.3,0.3c0.1,0.1,0.1,0.3,0,0.4L8.9,7.4C8.9,7.5,8.8,7.5,8.7,7.5c-0.1,0-0.2,0-0.2-0.1L8.2,7.2
			c-0.1-0.1-0.1-0.3,0-0.4l0.3-0.3C8.5,6.4,8.6,6.4,8.7,6.4L8.7,6.4z M8.7,6.4"/>
	</g>
</g>
</svg>
